<svg width="20" height="20" viewBox="0 0 20 20" fill="none" xmlns="http://www.w3.org/2000/svg">
<g clip-path="url(#clip0_77_181)">
<path d="M9.99999 18.3334C14.6024 18.3334 18.3333 14.6024 18.3333 10C18.3333 5.39765 14.6024 1.66669 9.99999 1.66669C5.39762 1.66669 1.66666 5.39765 1.66666 10C1.66666 14.6024 5.39762 18.3334 9.99999 18.3334Z" stroke="#155EEF" stroke-width="2" stroke-linecap="round" stroke-linejoin="round"/>
<path d="M7.91666 7.47113C7.91666 7.07339 7.91666 6.87452 7.99978 6.7635C8.07221 6.66675 8.18308 6.60622 8.30364 6.59761C8.44198 6.58773 8.60926 6.69527 8.94383 6.91035L12.8777 9.43923C13.168 9.62587 13.3131 9.71919 13.3633 9.83785C13.4071 9.94152 13.4071 10.0585 13.3633 10.1622C13.3131 10.2809 13.168 10.3742 12.8777 10.5608L8.94383 13.0897C8.60926 13.3048 8.44198 13.4123 8.30364 13.4024C8.18308 13.3938 8.07221 13.3333 7.99978 13.2365C7.91666 13.1255 7.91666 12.9266 7.91666 12.5289V7.47113Z" stroke="#155EEF" stroke-width="2" stroke-linecap="round" stroke-linejoin="round"/>
</g>
<defs>
<clipPath id="clip0_77_181">
<rect width="20" height="20" fill="white"/>
</clipPath>
</defs>
</svg>
