<svg width="64" height="64" viewBox="0 0 64 64" fill="none" xmlns="http://www.w3.org/2000/svg">
<path d="M29.3333 10.6667H20.8C16.3196 10.6667 14.0794 10.6667 12.3681 11.5386C10.8628 12.3056 9.63893 13.5294 8.87195 15.0347C8 16.746 8 18.9862 8 23.4667V43.2C8 47.6804 8 49.9206 8.87195 51.6319C9.63893 53.1372 10.8628 54.3611 12.3681 55.1281C14.0794 56 16.3196 56 20.8 56H40.5333C45.0138 56 47.254 56 48.9653 55.1281C50.4706 54.3611 51.6944 53.1372 52.4614 51.6319C53.3333 49.9206 53.3333 47.6804 53.3333 43.2V34.6667M34.6667 45.3333H18.6667M40 34.6667H18.6667M53.6569 10.3431C56.781 13.4673 56.781 18.5327 53.6569 21.6569C50.5327 24.781 45.4673 24.781 42.3431 21.6569C39.219 18.5327 39.219 13.4673 42.3431 10.3431C45.4673 7.21895 50.5327 7.21895 53.6569 10.3431Z" stroke="#F04438" stroke-width="3" stroke-linecap="round" stroke-linejoin="round"/>
</svg>
