<svg width="64" height="64" viewBox="0 0 64 64" fill="none" xmlns="http://www.w3.org/2000/svg">
<path d="M22.9067 36.0266L41.12 46.64M41.0933 17.36L22.9067 27.9733M56 13.3333C56 17.7516 52.4183 21.3333 48 21.3333C43.5817 21.3333 40 17.7516 40 13.3333C40 8.91504 43.5817 5.33331 48 5.33331C52.4183 5.33331 56 8.91504 56 13.3333ZM24 32C24 36.4183 20.4183 40 16 40C11.5817 40 8 36.4183 8 32C8 27.5817 11.5817 24 16 24C20.4183 24 24 27.5817 24 32ZM56 50.6666C56 55.0849 52.4183 58.6666 48 58.6666C43.5817 58.6666 40 55.0849 40 50.6666C40 46.2484 43.5817 42.6666 48 42.6666C52.4183 42.6666 56 46.2484 56 50.6666Z" stroke="#875BF7" stroke-width="3" stroke-linecap="round" stroke-linejoin="round"/>
</svg>
