<svg width="64" height="64" viewBox="0 0 64 64" fill="none" xmlns="http://www.w3.org/2000/svg">
<path d="M45.3333 56L32 45.3333L18.6667 56M18.1333 45.3333H45.8667C50.3471 45.3333 52.5873 45.3333 54.2986 44.4614C55.8039 43.6944 57.0277 42.4706 57.7947 40.9653C58.6667 39.254 58.6667 37.0138 58.6667 32.5333V20.8C58.6667 16.3196 58.6667 14.0794 57.7947 12.3681C57.0277 10.8628 55.8039 9.63893 54.2986 8.87195C52.5873 8 50.3471 8 45.8667 8H18.1333C13.6529 8 11.4127 8 9.7014 8.87195C8.19611 9.63893 6.97226 10.8628 6.20528 12.3681C5.33333 14.0794 5.33333 16.3196 5.33333 20.8V32.5333C5.33333 37.0138 5.33333 39.254 6.20528 40.9653C6.97226 42.4706 8.19611 43.6944 9.7014 44.4614C11.4127 45.3333 13.6529 45.3333 18.1333 45.3333Z" stroke="#155EEF" stroke-width="3" stroke-linecap="round" stroke-linejoin="round"/>
</svg>
