<svg width="20" height="20" viewBox="0 0 20 20" fill="none" xmlns="http://www.w3.org/2000/svg">
<g clip-path="url(#clip0_15_374)">
<path d="M8.33335 12.5L5.77064 15.0947C5.41317 15.4566 5.23444 15.6376 5.08081 15.6504C4.94753 15.6614 4.81703 15.6079 4.72999 15.5063C4.62965 15.3893 4.62965 15.1349 4.62965 14.6262V13.3263C4.62965 12.8699 4.25592 12.5397 3.80436 12.4736V12.4736C2.71147 12.3135 1.85317 11.4552 1.69308 10.3623C1.66669 10.1821 1.66669 9.96706 1.66669 9.537V5.66663C1.66669 4.26649 1.66669 3.56643 1.93917 3.03165C2.17885 2.56124 2.56131 2.17879 3.03171 1.93911C3.56649 1.66663 4.26656 1.66663 5.66669 1.66663H11.8334C13.2335 1.66663 13.9336 1.66663 14.4683 1.93911C14.9387 2.17879 15.3212 2.56124 15.5609 3.03165C15.8334 3.56643 15.8334 4.26649 15.8334 5.66663V9.16663M15.8334 18.3333L14.0197 17.0724C13.7647 16.8951 13.6373 16.8065 13.4985 16.7437C13.3754 16.6879 13.2459 16.6473 13.113 16.6228C12.9632 16.5952 12.808 16.5952 12.4975 16.5952H11C10.0666 16.5952 9.59989 16.5952 9.24337 16.4135C8.92977 16.2538 8.6748 15.9988 8.51501 15.6852C8.33335 15.3287 8.33335 14.862 8.33335 13.9285V11.8333C8.33335 10.8999 8.33335 10.4332 8.51501 10.0766C8.6748 9.76304 8.92977 9.50807 9.24337 9.34828C9.59989 9.16663 10.0666 9.16663 11 9.16663H15.6667C16.6001 9.16663 17.0668 9.16663 17.4233 9.34828C17.7369 9.50807 17.9919 9.76304 18.1517 10.0766C18.3334 10.4332 18.3334 10.8999 18.3334 11.8333V14.0952C18.3334 14.8718 18.3334 15.2601 18.2065 15.5663C18.0373 15.9747 17.7129 16.2992 17.3045 16.4683C16.9982 16.5952 16.6099 16.5952 15.8334 16.5952V18.3333Z" stroke="#667085" stroke-width="1.66667" stroke-linecap="round" stroke-linejoin="round"/>
</g>
<defs>
<clipPath id="clip0_15_374">
<rect width="20" height="20" fill="white"/>
</clipPath>
</defs>
</svg>
